<?xml version="1.0" encoding="UTF-8" standalone="no"?>
<!-- Created with Inkscape (http://www.inkscape.org/) -->

<svg
   xmlns:dc="http://purl.org/dc/elements/1.1/"
   xmlns:cc="http://creativecommons.org/ns#"
   xmlns:rdf="http://www.w3.org/1999/02/22-rdf-syntax-ns#"
   xmlns:svg="http://www.w3.org/2000/svg"
   xmlns="http://www.w3.org/2000/svg"
   xmlns:sodipodi="http://sodipodi.sourceforge.net/DTD/sodipodi-0.dtd"
   xmlns:inkscape="http://www.inkscape.org/namespaces/inkscape"
   width="20mm"
   height="20mm"
   viewBox="0 0 20 20"
   version="1.1"
   id="svg8"
   inkscape:version="0.92.4 (5da689c313, 2019-01-14)"
   sodipodi:docname="logo.svg">
  <defs
     id="defs2" />
  <sodipodi:namedview
     id="base"
     pagecolor="#ffffa2"
     bordercolor="#666666"
     borderopacity="1.0"
     inkscape:pageopacity="0"
     inkscape:pageshadow="2"
     inkscape:zoom="3.959798"
     inkscape:cx="137.44719"
     inkscape:cy="56.110434"
     inkscape:document-units="mm"
     inkscape:current-layer="layer1"
     showgrid="false"
     inkscape:window-width="1920"
     inkscape:window-height="1017"
     inkscape:window-x="1072"
     inkscape:window-y="-8"
     inkscape:window-maximized="1" />
  <metadata
     id="metadata5">
    <rdf:RDF>
      <cc:Work
         rdf:about="">
        <dc:format>image/svg+xml</dc:format>
        <dc:type
           rdf:resource="http://purl.org/dc/dcmitype/StillImage" />
        <dc:title></dc:title>
      </cc:Work>
    </rdf:RDF>
  </metadata>
  <g
     inkscape:groupmode="layer"
     id="layer2"
     inkscape:label="Layer 2"
     transform="translate(0,-277)" />
  <g
     inkscape:label="Layer 1"
     inkscape:groupmode="layer"
     id="layer1"
     transform="translate(0,-277)">
    <g
       id="g834"
       transform="translate(-157.9637,16.279241)"
       inkscape:export-xdpi="98.300003"
       inkscape:export-ydpi="98.300003">
      <circle
         inkscape:export-ydpi="96"
         inkscape:export-xdpi="96"
         r="8.5044651"
         cy="270.56934"
         cx="168.1994"
         id="path829"
         style="fill:#ffffff;fill-opacity:1;stroke:none;stroke-width:3.73057008;stroke-miterlimit:4;stroke-dasharray:none;stroke-opacity:0.62430941" />
      <path
         inkscape:export-ydpi="96"
         inkscape:export-xdpi="96"
         inkscape:connector-curvature="0"
         id="path826"
         d="m 165.82423,277.98714 c -1.87194,-0.57467 -4.19525,-2.94466 -4.76395,-4.85968 -0.90636,-3.05204 -0.30174,-5.44932 1.93969,-7.69075 2.24143,-2.24143 4.63871,-2.84605 7.69075,-1.93969 1.98848,0.59052 4.28409,2.88613 4.8746,4.87461 0.90636,3.05204 0.30174,5.44932 -1.93968,7.69075 -2.23613,2.23612 -4.75935,2.85865 -7.80141,1.92476 z m 5.98413,-1.07701 c 2.43198,-1.3577 3.84942,-4.10373 3.56271,-6.9021 -0.39413,-3.84686 -3.93307,-6.71292 -7.79978,-6.31676 -3.84686,0.39413 -6.71292,3.93308 -6.31676,7.79978 0.27727,2.70624 2.42865,5.32385 5.0381,6.12993 1.51079,0.46669 3.97542,0.14906 5.51573,-0.71085 z m -3.76014,-0.60434 c 0,-0.29104 0.11906,-0.52916 0.26458,-0.52916 0.14552,0 0.26459,0.23812 0.26459,0.52916 0,0.29104 -0.11907,0.52917 -0.26459,0.52917 -0.14552,0 -0.26458,-0.23813 -0.26458,-0.52917 z m -1.32292,-0.11667 c 0,-0.22687 0.11907,-0.41249 0.26459,-0.41249 0.14552,0 0.26458,0.11203 0.26458,0.24896 0,0.13694 -0.11906,0.32256 -0.26458,0.41249 -0.14552,0.0899 -0.26459,-0.0221 -0.26459,-0.24896 z m 2.80007,0.15218 c -0.11397,-0.18441 -0.13577,-0.40675 -0.0484,-0.49408 0.2368,-0.23679 0.49498,0.11147 0.36708,0.49515 -0.0896,0.26886 -0.15194,0.26865 -0.31864,-0.001 z m -4.22715,-0.67486 c 0.0884,-0.23044 0.27703,-0.41898 0.41911,-0.41898 0.34776,0 0.12999,0.60134 -0.26551,0.73318 -0.19335,0.0644 -0.25248,-0.0565 -0.1536,-0.3142 z m 5.57222,0.19838 c -0.25286,-0.25286 -0.2175,-0.61736 0.0599,-0.61736 0.12995,0 0.30481,0.17859 0.38857,0.39687 0.15476,0.4033 -0.12708,0.54187 -0.44846,0.22049 z m -7.59185,-1.74184 c -1.9347,-3.14774 -0.9265,-7.0983 2.2237,-8.71345 1.21361,-0.62224 3.86885,-0.97763 3.86885,-0.51784 0,0.17588 -0.44471,0.3016 -1.06684,0.3016 -2.97756,0 -5.53613,2.56787 -5.53613,5.55625 0,1.1888 0.7311,3.2133 1.28375,3.55485 0.36635,0.22642 0.38211,0.67849 0.0237,0.67849 -0.14766,0 -0.5063,-0.38696 -0.79699,-0.8599 z m 9.00296,0.63298 c 0,-0.14906 0.13146,-0.35227 0.29214,-0.45157 0.53881,-0.33301 1.28368,-2.35306 1.28955,-3.4972 0.007,-1.37369 -0.57558,-2.84934 -1.51029,-3.8252 -0.80258,-0.83791 -0.61471,-1.32904 0.21972,-0.5744 1.76758,1.59856 2.25891,5.04971 1.02973,7.23293 -0.62682,1.11335 -1.32085,1.69944 -1.32085,1.11544 z m -6.7589,-1.21627 c -0.35719,-0.35718 -0.64943,-0.89838 -0.64943,-1.20265 0,-0.76452 1.15818,-1.85208 1.97235,-1.85208 0.65745,0 0.67348,-0.0441 0.67348,-1.85208 0,-1.01865 0.0796,-1.85209 0.17677,-1.85209 0.0972,0 0.93066,0.13129 1.85208,0.29175 l 1.67532,0.29174 v 1.18672 1.18672 l -1.05833,-0.1788 -1.05834,-0.17881 v 1.75508 c 0,1.51063 -0.0905,1.84552 -0.64943,2.4045 -0.40937,0.40938 -0.95173,0.64944 -1.46723,0.64944 -0.51551,0 -1.05787,-0.24006 -1.46724,-0.64944 z m 2.57088,-0.31761 c 0.38656,-0.34984 0.48386,-0.83566 0.48386,-2.41609 v -1.97821 l 1.05833,0.14196 c 0.97866,0.13126 1.05833,0.0944 1.05833,-0.48929 0,-0.46031 -0.17911,-0.66843 -0.66146,-0.76857 -0.3638,-0.0755 -0.95911,-0.19914 -1.32291,-0.27467 -0.65578,-0.13615 -0.66146,-0.12137 -0.66146,1.71979 v 1.85713 h -0.83906 c -0.90908,0 -1.80677,0.63445 -1.80677,1.27694 0,1.17482 1.75199,1.78092 2.69114,0.93101 z m 2.20365,-7.7642 c -0.0899,-0.14552 0.0151,-0.26459 0.23335,-0.26459 0.21828,0 0.47046,0.11907 0.5604,0.26459 0.0899,0.14552 -0.0151,0.26458 -0.23336,0.26458 -0.21828,0 -0.47046,-0.11906 -0.56039,-0.26458 z"
         style="fill:#000000;stroke-width:0.26458332" />
    </g>
  </g>
</svg>
